<?xml version="1.0" encoding="utf-8"?>
<!-- Generator: Adobe Illustrator 21.0.0, SVG Export Plug-In . SVG Version: 6.00 Build 0)  -->
<svg version="1.1" id="Layer_1" xmlns="http://www.w3.org/2000/svg" xmlns:xlink="http://www.w3.org/1999/xlink" x="0px" y="0px"
	 viewBox="0 0 52 52" style="enable-background:new 0 0 52 52;" xml:space="preserve">
<style type="text/css">
	.st0{fill:#02B3E4;}
</style>
<g>
	<g>
		<path class="st0" d="M4.4,3.2c7.2,0,14.4,0.1,21.6,0.1c3.9,0,7.9,0,11.8-0.1c1.8,0,8.4-1.1,9.8-0.1c2.2,1.7,1,8.2,1.1,10.9
			c0.1,3.3,0.1,6.6,0.1,9.9c0.1,4,0.1,7.9,0.1,11.9c0,3.4,1.1,8.8-1.2,11.3c-2.3,2.5-7.6,1.6-11,1.6c-3.5,0.1-7.1,0.1-10.6,0.1
			c-3.6,0-7.1,0-10.7,0c-1.9,0-3.9,0-5.8,0c-2.4,0-3.5,0.4-5.1-1.6c-2.1-2.7-1.4-6.9-1.4-10.2c0-3.5-0.1-7-0.1-10.5
			C3,23.1,0.9,3.8,4.8,2.7c1.4-0.4,0.8-2.6-0.6-2.2c-2.2,0.6-3,2-3.5,4.2c-0.8,4,0,9,0,13.1C0.8,27.5,0,37.6,1.3,47.2
			c0.3,2.1,0.3,3.1,2.3,3.7c3.9,1.2,9.8,0.1,13.9,0.1c5.2,0,10.3,0,15.5-0.1c4.6-0.1,9.8,0.4,14.3-0.4c6.4-1.2,4-10.1,4-14.9
			c0-5.3-0.1-10.6-0.2-15.8C51,14.9,51.7,8.9,50.8,4c-0.3-1.6-0.5-2.5-2.1-3.1c-1.3-0.5-3.6,0-5,0c-2.6,0-5.2,0-7.9,0.1
			C25.4,1,14.9,1,4.4,0.9C3,0.9,3,3.2,4.4,3.2L4.4,3.2z"/>
	</g>
	<g>
		<path class="st0" d="M2.6,14.9c15.5,0,31.1,0,46.6,0c1.4,0,1.5-2.2,0-2.2c-15.5,0-31.1,0-46.6,0C1.1,12.7,1.1,14.9,2.6,14.9
			L2.6,14.9z"/>
	</g>
	<g>
		<path class="st0" d="M15.9,8.7c1.4,0,1.5-2.2,0-2.2C14.5,6.4,14.5,8.7,15.9,8.7L15.9,8.7z"/>
	</g>
	<g>
		<path class="st0" d="M11.3,9.2c1.4,0,1.5-2.2,0-2.2C9.9,6.9,9.9,9.2,11.3,9.2L11.3,9.2z"/>
	</g>
	<g>
		<path class="st0" d="M6.8,9.2c1.4,0,1.5-2.2,0-2.2C5.4,6.9,5.4,9.2,6.8,9.2L6.8,9.2z"/>
	</g>
	<g>
		<path class="st0" d="M17,20.6c5.9,0,11.9-0.1,17.8,0c-0.4-0.4-0.8-0.8-1.1-1.1c0.3,4.7-1.2,14.9-7.4,15c-2.9,0-5.4-3.3-6.7-5.7
			C18,26,18,23.1,18.2,20.2c0.1-1.4-2.2-1.4-2.2,0c-0.2,4,0.1,7.7,2.5,11c1.9,2.7,4.3,5.7,7.8,5.6c7.9-0.2,10-11.3,9.7-17.4
			c0-0.6-0.5-1.1-1.1-1.1c-5.9,0-11.9,0-17.8,0C15.6,18.3,15.6,20.6,17,20.6L17,20.6z"/>
	</g>
	<g>
		<path class="st0" d="M16.8,21.5c-1.6,0.1-3.3,0.2-4.9,0.2c-0.8,0-1.2,0.7-1.1,1.4c0.6,2.8,2.5,4.6,4.1,6.9
			c1.4,2.1,3.1,3.3,5.7,3.6c1.4,0.1,1.4-2.1,0-2.2c-2.5-0.2-3.4-2-4.7-3.8c-1.3-1.6-2.5-3-2.9-5.1c-0.4,0.5-0.7,0.9-1.1,1.4
			c1.6,0,3.3,0,4.9-0.2C18.3,23.7,18.3,21.4,16.8,21.5L16.8,21.5z"/>
	</g>
	<g>
		<path class="st0" d="M34.8,24.2c1.2,0,2.8,0.3,4,0c-0.1-0.2-0.3-0.4-0.4-0.6c-0.1,0.3-0.3,0.6-0.4,0.9c-0.3,0.6-0.6,1.2-0.8,1.8
			c-0.9,2-3.3,4.9-5.7,5c-1.4,0.1-1.4,2.4,0,2.2c2-0.1,3.3-1.3,4.7-2.5c1.7-1.5,2.5-2.8,3.5-4.9c0.5-1,1.9-2.9,0.8-3.9
			c-0.5-0.4-1.1-0.4-1.6-0.4c-1.3,0-2.6,0-4,0C33.4,22,33.4,24.2,34.8,24.2L34.8,24.2z"/>
	</g>
	<g>
		<path class="st0" d="M21.6,44.2c3,0,6-0.1,9-0.1c1.4,0,1.5-2.3,0-2.2c-3,0-6,0.1-9,0.1C20.1,42,20.1,44.2,21.6,44.2L21.6,44.2z"/>
	</g>
	<g>
		<path class="st0" d="M24.9,36.1c0,2.2,0,4.5,0,6.8c0,1.4,2.2,1.5,2.2,0c0-2.2,0-4.5,0-6.8C27.1,34.6,24.9,34.6,24.9,36.1
			L24.9,36.1z"/>
	</g>
</g>
</svg>
